<?xml version="1.0" encoding="UTF-8" standalone="no"?>
<!DOCTYPE svg PUBLIC "-//W3C//DTD SVG 1.1//EN" "http://www.w3.org/Graphics/SVG/1.1/DTD/svg11.dtd">
<svg width="100%" height="100%" viewBox="0 0 1255 1320" version="1.1" xmlns="http://www.w3.org/2000/svg" xmlns:xlink="http://www.w3.org/1999/xlink" xml:space="preserve" xmlns:serif="http://www.serif.com/" style="fill-rule:evenodd;clip-rule:evenodd;stroke-miterlimit:2;">
    <g transform="matrix(1,0,0,1,-26317.5,-63483.4)">
        <g transform="matrix(1,0,0,1,24267.3,62869.5)">
            <g transform="matrix(0.971715,0,0,0.971715,-144.783,44.002)">
                <g transform="matrix(1.2486,0,0,1.29992,-465.577,-1234.88)">
                    <g transform="matrix(9.88286,0,0,6.33817,-2163.73,-1047.09)">
                        <rect x="443.375" y="410.343" width="78.159" height="92.935" style="fill:white;stroke:rgb(126,179,255);stroke-width:0.56px;"/>
                    </g>
                    <g transform="matrix(9.22431,0,0,9.22431,-1865.16,-2231.39)">
                        <path d="M442.762,414.917L526.146,414.917L442.762,414.917Z" style="fill:none;stroke:rgb(126,179,255);stroke-width:0.5px;"/>
                    </g>
                    <g transform="matrix(9.22431,0,0,9.22431,-1865.16,-2231.39)">
                        <path d="M446.604,412.73C446.604,413.047 446.348,413.303 446.032,413.303C445.716,413.303 445.46,413.047 445.46,412.73C445.46,412.415 445.716,412.159 446.032,412.159C446.348,412.159 446.604,412.415 446.604,412.73Z" style="fill:none;stroke:rgb(126,179,255);stroke-width:0.32px;"/>
                    </g>
                    <g transform="matrix(9.22431,0,0,9.22431,-1865.16,-2231.39)">
                        <path d="M449.497,412.73C449.497,413.047 449.241,413.303 448.925,413.303C448.609,413.303 448.353,413.047 448.353,412.73C448.353,412.415 448.609,412.159 448.925,412.159C449.241,412.159 449.497,412.415 449.497,412.73Z" style="fill:none;stroke:rgb(126,179,255);stroke-width:0.32px;"/>
                    </g>
                    <g transform="matrix(9.22431,0,0,9.22431,-1865.16,-2231.39)">
                        <path d="M452.389,412.73C452.389,413.047 452.133,413.303 451.817,413.303C451.501,413.303 451.246,413.047 451.246,412.73C451.246,412.415 451.501,412.159 451.817,412.159C452.133,412.159 452.389,412.415 452.389,412.73Z" style="fill:none;stroke:rgb(126,179,255);stroke-width:0.32px;"/>
                    </g>
                </g>
                <g transform="matrix(1,0,0,1,-25187.7,-25938.1)">
                    <rect x="27528" y="26835.9" width="568.903" height="299.555" style="fill:rgb(126,179,255);fill-opacity:0.08;"/>
                </g>
                <g transform="matrix(1.53982,0,0,0.857143,-40047.9,-21752)">
                    <rect x="27528" y="26835.9" width="568.903" height="299.555" style="fill:rgb(126,179,255);fill-opacity:0.08;"/>
                </g>
                <g transform="matrix(0.5,0,0,1,-10832.1,-25938.1)">
                    <rect x="27528" y="26835.9" width="568.903" height="299.555" style="fill:rgb(126,179,255);fill-opacity:0.08;"/>
                </g>
            </g>
            <g transform="matrix(0.953908,0,0,0.953908,-18213,-21101.2)">
                <g transform="matrix(1.45344,0,0,1.57317,18203.5,20433.9)">
                    <g>
                        <g transform="matrix(9.88286,0,0,6.33817,-2163.73,-1047.09)">
                            <rect x="443.375" y="410.343" width="78.159" height="92.935" style="fill:white;stroke:rgb(126,179,255);stroke-width:0.52px;"/>
                        </g>
                        <g transform="matrix(9.22431,0,0,9.22431,-1865.16,-2231.39)">
                            <path d="M442.762,414.917L526.146,414.917L442.762,414.917Z" style="fill:none;stroke:rgb(126,179,255);stroke-width:0.47px;"/>
                        </g>
                        <g transform="matrix(9.22431,0,0,9.22431,-1865.16,-2231.39)">
                            <path d="M446.604,412.73C446.604,413.047 446.348,413.303 446.032,413.303C445.716,413.303 445.46,413.047 445.46,412.73C445.46,412.415 445.716,412.159 446.032,412.159C446.348,412.159 446.604,412.415 446.604,412.73Z" style="fill:none;stroke:rgb(126,179,255);stroke-width:0.3px;"/>
                        </g>
                        <g transform="matrix(9.22431,0,0,9.22431,-1865.16,-2231.39)">
                            <path d="M449.497,412.73C449.497,413.047 449.241,413.303 448.925,413.303C448.609,413.303 448.353,413.047 448.353,412.73C448.353,412.415 448.609,412.159 448.925,412.159C449.241,412.159 449.497,412.415 449.497,412.73Z" style="fill:none;stroke:rgb(126,179,255);stroke-width:0.3px;"/>
                        </g>
                        <g transform="matrix(9.22431,0,0,9.22431,-1865.16,-2231.39)">
                            <path d="M452.389,412.73C452.389,413.047 452.133,413.303 451.817,413.303C451.501,413.303 451.246,413.047 451.246,412.73C451.246,412.415 451.501,412.159 451.817,412.159C452.133,412.159 452.389,412.415 452.389,412.73Z" style="fill:none;stroke:rgb(126,179,255);stroke-width:0.3px;"/>
                        </g>
                    </g>
                </g>
                <g transform="matrix(2.12259,0,0,1.09266,-17683,18982.4)">
                    <rect x="18814.2" y="3896.71" width="86.088" height="12.298" style="fill:rgb(241,241,241);"/>
                </g>
                <g transform="matrix(1.68041,0,0,1.09266,-9344.79,19011.7)">
                    <rect x="18814.2" y="3896.71" width="86.088" height="12.298" style="fill:rgb(241,241,241);"/>
                </g>
                <g transform="matrix(0.244917,0,0,0.244917,21665,19059.5)">
                    <path d="M2402.88,16844.8L2425.22,16889.5L2474.59,16896.9L2439.03,16932L2447.2,16981.2L2402.88,16958.3L2358.56,16981.2L2366.73,16932L2331.17,16896.9L2380.54,16889.5L2402.88,16844.8Z" style="fill:rgb(255,171,96);"/>
                </g>
                <g transform="matrix(0.244917,0,0,0.244917,21804.9,19059.5)">
                    <path d="M2402.88,16844.8L2425.22,16889.5L2474.59,16896.9L2439.03,16932L2447.2,16981.2L2402.88,16958.3L2358.56,16981.2L2366.73,16932L2331.17,16896.9L2380.54,16889.5L2402.88,16844.8Z" style="fill:rgb(255,171,96);"/>
                </g>
                <g transform="matrix(0.244917,0,0,0.244917,21710.3,19059.5)">
                    <path d="M2402.88,16844.8L2425.22,16889.5L2474.59,16896.9L2439.03,16932L2447.2,16981.2L2402.88,16958.3L2358.56,16981.2L2366.73,16932L2331.17,16896.9L2380.54,16889.5L2402.88,16844.8Z" style="fill:rgb(255,171,96);"/>
                </g>
                <g transform="matrix(0.244917,0,0,0.244917,21850.2,19059.5)">
                    <path d="M2402.88,16844.8L2425.22,16889.5L2474.59,16896.9L2439.03,16932L2447.2,16981.2L2402.88,16958.3L2358.56,16981.2L2366.73,16932L2331.17,16896.9L2380.54,16889.5L2402.88,16844.8Z" style="fill:rgb(255,171,96);"/>
                </g>
                <g transform="matrix(0.244917,0,0,0.244917,21755.6,19059.5)">
                    <path d="M2402.88,16844.8L2425.22,16889.5L2474.59,16896.9L2439.03,16932L2447.2,16981.2L2402.88,16958.3L2358.56,16981.2L2366.73,16932L2331.17,16896.9L2380.54,16889.5L2402.88,16844.8Z" style="fill:rgb(255,171,96);"/>
                </g>
                <g transform="matrix(4.40635,0,0,25.2582,-61397.9,-75396.4)">
                    <rect x="18814.2" y="3896.71" width="86.088" height="12.298" style="fill:rgb(162,202,246);fill-opacity:0.08;"/>
                </g>
                <g transform="matrix(6.63546,0,0,25.2582,-102922,-75396.4)">
                    <rect x="18814.2" y="3896.71" width="86.088" height="12.298" style="fill:rgb(162,202,246);fill-opacity:0.08;"/>
                </g>
                <g transform="matrix(1.81414,0,0,0.366457,10759.3,19218.6)">
                    <rect x="6174.64" y="10536.2" width="108.693" height="28.735" style="fill:rgb(222,222,222);"/>
                </g>
                <g transform="matrix(1.81414,0,0,0.366457,10759.3,19247.1)">
                    <rect x="6174.64" y="10536.2" width="108.693" height="28.735" style="fill:rgb(222,222,222);"/>
                </g>
                <g transform="matrix(1.81414,0,0,0.366457,10759.3,19275.6)">
                    <rect x="6174.64" y="10536.2" width="108.693" height="28.735" style="fill:rgb(222,222,222);"/>
                </g>
                <g transform="matrix(1.81414,0,0,0.366457,10759.3,19304.1)">
                    <rect x="6174.64" y="10536.2" width="108.693" height="28.735" style="fill:rgb(222,222,222);"/>
                </g>
                <g transform="matrix(1.81414,0,0,0.366457,10759.3,19332.6)">
                    <rect x="6174.64" y="10536.2" width="108.693" height="28.735" style="fill:rgb(222,222,222);"/>
                </g>
                <g transform="matrix(1.81414,0,0,0.366457,10759.3,19361.1)">
                    <rect x="6174.64" y="10536.2" width="108.693" height="28.735" style="fill:rgb(222,222,222);"/>
                </g>
                <g transform="matrix(1.81414,0,0,0.366457,10759.3,19389.6)">
                    <rect x="6174.64" y="10536.2" width="108.693" height="28.735" style="fill:rgb(222,222,222);"/>
                </g>
                <g transform="matrix(1.81414,0,0,0.366457,10759.3,19418.1)">
                    <rect x="6174.64" y="10536.2" width="108.693" height="28.735" style="fill:rgb(222,222,222);"/>
                </g>
                <g transform="matrix(11.4559,0,0,25.2582,-194027,-75023.4)">
                    <rect x="18814.2" y="3896.71" width="86.088" height="12.298" style="fill:rgb(162,202,246);fill-opacity:0.08;"/>
                </g>
                <g transform="matrix(0.511407,0,0,0.511407,18425.6,17710.7)">
                    <circle cx="6098.14" cy="10535.2" r="45.386" style="fill:rgb(162,202,246);"/>
                </g>
                <g transform="matrix(0.602036,0,0,0.366457,17867.3,19233.9)">
                    <rect x="6174.64" y="10536.2" width="108.693" height="28.735" style="fill:rgb(222,222,222);"/>
                </g>
                <g transform="matrix(0.373677,0,0,0.366457,19354.8,19233.9)">
                    <rect x="6174.64" y="10536.2" width="108.693" height="28.735" style="fill:rgb(222,222,222);"/>
                </g>
                <g transform="matrix(0.511407,0,0,0.511407,18425.6,17791.6)">
                    <circle cx="6098.14" cy="10535.2" r="45.386" style="fill:rgb(162,202,246);"/>
                </g>
                <g transform="matrix(0.864994,0,0,0.366457,16243.6,19314.8)">
                    <rect x="6174.64" y="10536.2" width="108.693" height="28.735" style="fill:rgb(222,222,222);"/>
                </g>
                <g transform="matrix(0.511407,0,0,0.511407,18425.6,17868.7)">
                    <circle cx="6098.14" cy="10535.2" r="45.386" style="fill:rgb(162,202,246);"/>
                </g>
                <g transform="matrix(0.442877,0,0,0.366457,18850,19391.9)">
                    <rect x="6174.64" y="10536.2" width="108.693" height="28.735" style="fill:rgb(222,222,222);"/>
                </g>
                <g transform="matrix(0.373677,0,0,0.366457,19334.5,19391.9)">
                    <rect x="6174.64" y="10536.2" width="108.693" height="28.735" style="fill:rgb(222,222,222);"/>
                </g>
                <g transform="matrix(0.264577,0,0,0.264577,18695.4,19350.3)">
                    <rect x="11503.1" y="14144.6" width="73.692" height="73.692" style="fill:rgb(92,162,171);"/>
                </g>
                <g transform="matrix(0.264577,0,0,0.264577,18695.4,19427.4)">
                    <rect x="11503.1" y="14144.6" width="73.692" height="73.692" style="fill:rgb(92,162,171);"/>
                </g>
                <g transform="matrix(0.264577,0,0,0.264577,18695.4,19502.6)">
                    <rect x="11503.1" y="14144.6" width="73.692" height="73.692" style="fill:rgb(92,162,171);"/>
                </g>
                <g transform="matrix(0.264577,0,0,0.264577,18731.5,19350.3)">
                    <rect x="11503.1" y="14144.6" width="73.692" height="73.692" style="fill:rgb(162,202,246);"/>
                </g>
                <g transform="matrix(0.264577,0,0,0.264577,18731.5,19427.4)">
                    <rect x="11503.1" y="14144.6" width="73.692" height="73.692" style="fill:rgb(162,202,246);"/>
                </g>
                <g transform="matrix(0.264577,0,0,0.264577,18731.5,19502.6)">
                    <rect x="11503.1" y="14144.6" width="73.692" height="73.692" style="fill:rgb(92,162,171);"/>
                </g>
                <g transform="matrix(0.264577,0,0,0.264577,18767.5,19350.3)">
                    <rect x="11503.1" y="14144.6" width="73.692" height="73.692" style="fill:rgb(237,44,0);"/>
                </g>
                <g transform="matrix(0.264577,0,0,0.264577,18767.5,19427.4)">
                    <rect x="11503.1" y="14144.6" width="73.692" height="73.692" style="fill:rgb(92,162,171);"/>
                </g>
                <g transform="matrix(0.264577,0,0,0.264577,18767.5,19502.6)">
                    <rect x="11503.1" y="14144.6" width="73.692" height="73.692" style="fill:rgb(162,202,246);"/>
                </g>
                <g transform="matrix(0.264577,0,0,0.264577,18803.6,19350.3)">
                    <rect x="11503.1" y="14144.6" width="73.692" height="73.692" style="fill:rgb(57,159,255);"/>
                </g>
                <g transform="matrix(0.264577,0,0,0.264577,18803.6,19427.4)">
                    <rect x="11503.1" y="14144.6" width="73.692" height="73.692" style="fill:rgb(92,162,171);"/>
                </g>
                <g transform="matrix(0.264577,0,0,0.264577,18803.6,19502.6)">
                    <rect x="11503.1" y="14144.6" width="73.692" height="73.692" style="fill:rgb(57,159,255);"/>
                </g>
                <g transform="matrix(4.16667,0,0,4.16667,21658.9,23457.5)">
                    <path d="M0,20.373C3.792,16.963 9.182,15.781 14.095,17.388C14.298,16.426 14.407,15.43 14.407,14.408C14.407,6.451 7.957,0 0,0C-7.957,0 -14.407,6.451 -14.407,14.408C-14.407,15.43 -14.297,16.426 -14.095,17.388C-9.181,15.781 -3.792,16.963 0,20.373" style="fill:rgb(21,108,221);fill-rule:nonzero;"/>
                </g>
                <g transform="matrix(4.16667,0,0,4.16667,21729,23650.5)">
                    <path d="M0,-27.714C-0.885,-28.225 -1.803,-28.628 -2.737,-28.933C-3.802,-23.874 -7.521,-19.798 -12.369,-18.219C-11.313,-13.23 -12.983,-7.972 -16.832,-4.52C-16.1,-3.864 -15.293,-3.271 -14.407,-2.759C-7.517,1.219 1.295,-1.142 5.273,-8.033C9.252,-14.924 6.891,-23.735 0,-27.714" style="fill:rgb(162,202,246);fill-rule:nonzero;"/>
                </g>
                <g transform="matrix(-3.60831,2.08356,2.08356,3.60831,21717,23539.9)">
                    <path d="M12.366,-6.451C11.908,-5.044 11.654,-3.548 11.653,-1.988C11.654,-0.43 11.909,1.068 12.366,2.474C7.377,3.531 2.119,1.861 -1.333,-1.988C2.118,-5.836 7.377,-7.508 12.366,-6.451" style="fill:rgb(204,216,229);fill-rule:nonzero;"/>
                </g>
                <g transform="matrix(3.60851,2.08321,2.08321,-3.60851,21626,23576.6)">
                    <path d="M2.734,2.118C2.276,3.523 2.021,5.021 2.021,6.58C2.021,8.139 2.276,9.636 2.734,11.042C-2.255,12.099 -7.513,10.429 -10.965,6.581C-7.514,2.731 -2.255,1.061 2.734,2.118" style="fill:rgb(204,216,229);fill-rule:nonzero;"/>
                </g>
                <g transform="matrix(0,-4.16667,-4.16667,0,21630.4,23584.6)">
                    <path d="M2.387,-11.312C1.929,-9.906 1.674,-8.408 1.674,-6.849C1.674,-5.291 1.929,-3.792 2.387,-2.387C-2.602,-1.33 -7.861,-3 -11.312,-6.849C-7.861,-10.698 -2.602,-12.369 2.387,-11.312" style="fill:rgb(204,216,229);fill-rule:nonzero;"/>
                </g>
                <g transform="matrix(4.16667,0,0,4.16667,21658.9,23577.6)">
                    <path d="M0,-8.442C-1.1,-7.453 -2.069,-6.284 -2.849,-4.934C-3.628,-3.584 -4.156,-2.159 -4.462,-0.713C-3.057,-0.255 -1.559,0 0,0C1.559,0 3.057,-0.255 4.463,-0.713C4.156,-2.159 3.628,-3.584 2.849,-4.934C2.069,-6.284 1.1,-7.453 0,-8.442" style="fill:white;fill-rule:nonzero;"/>
                </g>
                <g transform="matrix(4.16667,0,0,4.16667,21616,23622)">
                    <path d="M0,-15L-12.489,-2.511C-12.288,-2.061 -12.062,-1.616 -11.81,-1.179C-11.573,-0.769 -11.316,-0.377 -11.046,0L2.148,-13.194C1.374,-13.726 0.655,-14.331 0,-15" style="fill:rgb(223,232,244);fill-rule:nonzero;"/>
                </g>
                <g transform="matrix(-2.94628,2.94628,2.94628,2.94628,21635,23651.7)">
                    <path d="M-8.154,-4.562L2.886,-4.562C2.008,-3.495 0.975,-2.551 -0.194,-1.766L-7.538,-1.766C-7.651,-2.723 -7.858,-3.658 -8.154,-4.562" style="fill:rgb(223,232,244);fill-rule:nonzero;"/>
                </g>
                <g transform="matrix(-2.94628,2.94628,2.94628,2.94628,21612.4,23639.3)">
                    <path d="M-14.57,-9.347L4.351,-9.347C4.456,-8.405 4.466,-7.471 4.388,-6.551L-15.565,-6.551C-15.134,-7.453 -14.802,-8.39 -14.57,-9.347" style="fill:rgb(223,232,244);fill-rule:nonzero;"/>
                </g>
                <g transform="matrix(-2.94628,2.94628,2.94628,2.94628,21589.2,23595.7)">
                    <path d="M-12.688,-8.747L0.986,-8.747C2.226,-7.994 3.35,-7.052 4.319,-5.951L-11.415,-5.951C-11.733,-6.917 -12.161,-7.854 -12.688,-8.747" style="fill:rgb(223,232,244);fill-rule:nonzero;"/>
                </g>
                <g transform="matrix(-2.3839,-3.41733,-3.41733,2.3839,21553.9,23567.4)">
                    <path d="M-6.192,-13.194C-5.254,-13.089 -4.305,-13.076 -3.359,-13.159L-6.192,2.748C-7.145,3.237 -8.166,3.615 -9.234,3.885L-6.192,-13.194Z" style="fill:rgb(223,232,244);fill-rule:nonzero;"/>
                </g>
                <g transform="matrix(4.16667,0,0,4.16667,21597.9,23566.3)">
                    <path d="M0,-8.496C-0.743,-8.22 -1.477,-7.897 -2.186,-7.488C-5.219,-5.737 -7.373,-3.048 -8.496,0L0,-8.496Z" style="fill:rgb(223,232,244);fill-rule:nonzero;"/>
                </g>
                <g transform="matrix(-2.28647,-3.48327,-3.48327,2.28647,21597.5,23608.6)">
                    <path d="M-6.643,-9.013C-5.602,-9.191 -4.584,-9.478 -3.608,-9.877L-6.643,4.753C-7.523,4.147 -8.341,3.456 -9.067,2.672L-6.643,-9.013Z" style="fill:rgb(223,232,244);fill-rule:nonzero;"/>
                </g>
                <g transform="matrix(-2.04966,-3.62767,-3.62767,2.04966,21638.8,23627.7)">
                    <path d="M-3.206,-3.733C-2.678,-3.554 -2.143,-3.415 -1.607,-3.302L-3.206,2.451C-3.43,1.418 -3.556,0.347 -3.546,-0.755C-3.536,-1.777 -3.417,-2.773 -3.206,-3.733" style="fill:rgb(223,232,244);fill-rule:nonzero;"/>
                </g>
                <g transform="matrix(-2.41282,-3.39697,-3.39697,2.41282,21582.6,23595.1)">
                    <path d="M-7.809,-11.208C-6.634,-11.836 -5.543,-12.629 -4.572,-13.572L-7.809,5.533C-8.732,5.24 -9.614,4.853 -10.45,4.387L-7.809,-11.208Z" style="fill:rgb(223,232,244);fill-rule:nonzero;"/>
                </g>
                <g transform="matrix(0.675352,0,0,0.675352,18069.8,10845.4)">
                    <circle cx="6333.63" cy="18128.1" r="116.15" style="fill:white;"/>
                    <clipPath id="_clip1">
                        <circle cx="6333.63" cy="18128.1" r="116.15"/>
                    </clipPath>
                    <g clip-path="url(#_clip1)">
                        <g transform="matrix(1,0,0,1,3524.23,16174.3)">
                            <g transform="matrix(4.16667,0,0,4.16667,900.697,56.7719)">
                                <path d="M464.169,435.974L464.133,455.896" style="fill:none;stroke:rgb(162,202,246);stroke-width:3.1px;"/>
                            </g>
                            <g transform="matrix(4.16667,0,0,4.16667,900.697,56.7719)">
                                <path d="M451.745,440.69L450.891,440.963C450.09,441.41 450.353,449.514 450.353,449.514L450.243,460.555C450.229,461.266 450.782,461.85 451.469,461.85C452.082,461.85 452.601,461.381 452.684,460.751L453.649,452.127L453.79,444.863L451.745,440.69Z" style="fill:rgb(162,202,246);fill-rule:nonzero;"/>
                            </g>
                            <g transform="matrix(4.16667,0,0,4.16667,900.697,56.7719)">
                                <path d="M453.077,441.848L452.948,444.667L454.183,444.667L454.054,441.848C454.054,441.848 454.261,441.723 454.281,441.629C454.329,441.404 454.037,440.816 454.037,440.816L453.094,440.816C453.094,440.816 452.802,441.404 452.85,441.629C452.871,441.723 453.077,441.848 453.077,441.848Z" style="fill:rgb(162,202,246);fill-rule:nonzero;"/>
                            </g>
                            <g transform="matrix(4.16667,0,0,4.16667,900.697,56.7719)">
                                <path d="M453.534,440.118C452.419,440.118 451.516,439.214 451.516,438.1L451.516,437.292C451.516,436.178 452.419,435.274 453.534,435.274C454.649,435.274 455.552,436.178 455.552,437.292L455.552,438.1C455.552,439.214 454.649,440.118 453.534,440.118Z" style="fill:rgb(162,202,246);fill-rule:nonzero;"/>
                            </g>
                            <g transform="matrix(4.16667,0,0,4.16667,900.697,56.7719)">
                                <path d="M451.745,440.69L447.745,434.144L447.011,435.338C446.734,435.787 446.707,436.347 446.939,436.822L450.25,443.575L450.84,446.522L451.745,440.69Z" style="fill:rgb(162,202,246);fill-rule:nonzero;"/>
                            </g>
                            <g transform="matrix(4.16667,0,0,4.16667,900.697,56.7719)">
                                <path d="M455.464,440.69L456.317,440.963C457.119,441.41 456.856,449.514 456.856,449.514L456.966,460.555C456.979,461.266 456.427,461.85 455.74,461.85C455.127,461.85 454.608,461.381 454.525,460.751L453.56,452.127L453.418,444.863L455.464,440.69Z" style="fill:rgb(162,202,246);fill-rule:nonzero;"/>
                            </g>
                            <g transform="matrix(4.16667,0,0,4.16667,900.697,56.7719)">
                                <path d="M455.464,440.69L459.464,434.144L460.198,435.338C460.475,435.787 460.501,436.347 460.269,436.822L456.958,443.575L456.369,446.522L455.464,440.69Z" style="fill:rgb(162,202,246);fill-rule:nonzero;"/>
                            </g>
                            <g transform="matrix(4.16667,0,0,4.16667,900.697,56.7719)">
                                <path d="M462.352,454.2L459.698,459.886L447.727,461.882L435.312,479.839L478.321,479.839L470.34,461.882L466.471,454.144C465.615,452.433 463.161,452.466 462.352,454.2Z" style="fill:rgb(130,183,240);fill-rule:nonzero;stroke:rgb(162,202,246);stroke-width:0.37px;stroke-linejoin:round;"/>
                            </g>
                            <g transform="matrix(4.16667,0,0,4.16667,900.697,56.7719)">
                                <rect x="464.169" y="437.797" width="6.686" height="6.079" style="fill:rgb(231,83,60);fill-rule:nonzero;"/>
                            </g>
                            <g transform="matrix(4.16667,0,0,4.16667,900.697,56.7719)">
                                <path d="M476.326,445.699L470.855,445.699L470.855,439.621L476.326,439.621L474.502,442.66L476.326,445.699Z" style="fill:rgb(231,83,60);fill-rule:nonzero;"/>
                            </g>
                        </g>
                    </g>
                </g>
                <g transform="matrix(3.92746,0,0,0.50659,-2266.25,18116.1)">
                    <rect x="6174.64" y="10536.2" width="108.693" height="28.735" style="fill:rgb(222,222,222);"/>
                </g>
                <g transform="matrix(1.62542,0,0,0.50659,11948.1,18162)">
                    <rect x="6174.64" y="10536.2" width="108.693" height="28.735" style="fill:rgb(222,222,222);"/>
                </g>
                <g transform="matrix(3.30073,0,0,0.50659,1603.61,18207.8)">
                    <rect x="6174.64" y="10536.2" width="108.693" height="28.735" style="fill:rgb(222,222,222);"/>
                </g>
                <g transform="matrix(1.43257,0,0,0.50659,13138.8,18253.7)">
                    <rect x="6174.64" y="10536.2" width="108.693" height="28.735" style="fill:rgb(222,222,222);"/>
                </g>
                <g transform="matrix(2.74631,0,0,0.50659,5026.95,18299.6)">
                    <rect x="6174.64" y="10536.2" width="108.693" height="28.735" style="fill:rgb(222,222,222);"/>
                </g>
                <g transform="matrix(1,0,0,1,20978.2,21907.3)">
                    <g transform="matrix(0.0838355,0,0,0.114716,387.489,-960.364)">
                        <path d="M6784.79,21865.5C6784.79,21832 6747.53,21804.8 6701.64,21804.8L6300.8,21804.8C6254.91,21804.8 6217.65,21832 6217.65,21865.5C6217.65,21899.1 6254.91,21926.3 6300.8,21926.3L6701.64,21926.3C6747.53,21926.3 6784.79,21899.1 6784.79,21865.5Z" style="fill:rgb(234,234,234);stroke:rgb(126,179,255);stroke-width:3.54px;stroke-linecap:round;stroke-linejoin:round;stroke-miterlimit:1.5;"/>
                    </g>
                    <g transform="matrix(0.174642,0,0,0.174642,-177.254,-2272.62)">
                        <circle cx="6262.78" cy="21878.7" r="74.119" style="fill:rgb(210,228,254);stroke:rgb(126,179,255);stroke-width:2.76px;stroke-linecap:round;stroke-linejoin:round;stroke-miterlimit:1.5;"/>
                    </g>
                </g>
                <g transform="matrix(1,0,0,1,20978.2,21953.2)">
                    <g transform="matrix(0.0838355,0,0,0.114716,387.489,-960.364)">
                        <path d="M6784.79,21865.5C6784.79,21832 6747.53,21804.8 6701.64,21804.8L6300.8,21804.8C6254.91,21804.8 6217.65,21832 6217.65,21865.5C6217.65,21899.1 6254.91,21926.3 6300.8,21926.3L6701.64,21926.3C6747.53,21926.3 6784.79,21899.1 6784.79,21865.5Z" style="fill:rgb(234,234,234);stroke:rgb(126,179,255);stroke-width:3.54px;stroke-linecap:round;stroke-linejoin:round;stroke-miterlimit:1.5;"/>
                    </g>
                    <g transform="matrix(0.174642,0,0,0.174642,-177.254,-2272.62)">
                        <circle cx="6262.78" cy="21878.7" r="74.119" style="fill:rgb(210,228,254);stroke:rgb(126,179,255);stroke-width:2.76px;stroke-linecap:round;stroke-linejoin:round;stroke-miterlimit:1.5;"/>
                    </g>
                </g>
                <g transform="matrix(1,0,0,1,20978.2,21999)">
                    <g transform="matrix(0.0838355,0,0,0.114716,387.489,-960.364)">
                        <path d="M6784.79,21865.5C6784.79,21832 6747.53,21804.8 6701.64,21804.8L6300.8,21804.8C6254.91,21804.8 6217.65,21832 6217.65,21865.5C6217.65,21899.1 6254.91,21926.3 6300.8,21926.3L6701.64,21926.3C6747.53,21926.3 6784.79,21899.1 6784.79,21865.5Z" style="fill:rgb(234,234,234);stroke:rgb(126,179,255);stroke-width:3.54px;stroke-linecap:round;stroke-linejoin:round;stroke-miterlimit:1.5;"/>
                    </g>
                    <g transform="matrix(0.174642,0,0,0.174642,-177.254,-2272.62)">
                        <circle cx="6262.78" cy="21878.7" r="74.119" style="fill:rgb(210,228,254);stroke:rgb(126,179,255);stroke-width:2.76px;stroke-linecap:round;stroke-linejoin:round;stroke-miterlimit:1.5;"/>
                    </g>
                </g>
                <g transform="matrix(1,0,0,1,20978.2,22044.9)">
                    <g transform="matrix(0.0838355,0,0,0.114716,387.489,-960.364)">
                        <path d="M6784.79,21865.5C6784.79,21832 6747.53,21804.8 6701.64,21804.8L6300.8,21804.8C6254.91,21804.8 6217.65,21832 6217.65,21865.5C6217.65,21899.1 6254.91,21926.3 6300.8,21926.3L6701.64,21926.3C6747.53,21926.3 6784.79,21899.1 6784.79,21865.5Z" style="fill:rgb(234,234,234);stroke:rgb(126,179,255);stroke-width:3.54px;stroke-linecap:round;stroke-linejoin:round;stroke-miterlimit:1.5;"/>
                    </g>
                    <g transform="matrix(0.174642,0,0,0.174642,-177.254,-2272.62)">
                        <circle cx="6262.78" cy="21878.7" r="74.119" style="fill:rgb(210,228,254);stroke:rgb(126,179,255);stroke-width:2.76px;stroke-linecap:round;stroke-linejoin:round;stroke-miterlimit:1.5;"/>
                    </g>
                </g>
                <g transform="matrix(1,0,0,1,20978.2,22090.7)">
                    <g transform="matrix(0.0838355,0,0,0.114716,387.489,-960.364)">
                        <path d="M6784.79,21865.5C6784.79,21832 6747.53,21804.8 6701.64,21804.8L6300.8,21804.8C6254.91,21804.8 6217.65,21832 6217.65,21865.5C6217.65,21899.1 6254.91,21926.3 6300.8,21926.3L6701.64,21926.3C6747.53,21926.3 6784.79,21899.1 6784.79,21865.5Z" style="fill:rgb(234,234,234);stroke:rgb(126,179,255);stroke-width:3.54px;stroke-linecap:round;stroke-linejoin:round;stroke-miterlimit:1.5;"/>
                    </g>
                    <g transform="matrix(0.174642,0,0,0.174642,-177.254,-2272.62)">
                        <circle cx="6262.78" cy="21878.7" r="74.119" style="fill:rgb(210,228,254);stroke:rgb(126,179,255);stroke-width:2.76px;stroke-linecap:round;stroke-linejoin:round;stroke-miterlimit:1.5;"/>
                    </g>
                </g>
            </g>
            <g transform="matrix(0.953908,0,0,0.953908,271.392,98.067)">
                <g transform="matrix(11.8991,0,0,11.8991,-565.084,-4355.3)">
                    <path d="M220.4,522.557C220.552,522.373 220.44,521.889 220.44,521.889C220.44,521.889 217.791,521.595 216.937,521.795C216.716,521.847 216.341,522.039 215.988,522.239C215.929,522.274 215.825,522.477 215.767,522.513C215.659,522.575 215.604,522.47 215.513,522.526C215.277,522.675 215.11,522.791 215.108,522.807C214.875,524.022 215.185,524.513 215.185,524.513C215.185,524.513 217.365,525.191 217.864,524.738C219.13,523.596 220.069,522.961 220.4,522.557Z" style="fill:rgb(22,23,17);fill-rule:nonzero;"/>
                </g>
                <g transform="matrix(11.8991,0,0,11.8991,-565.084,-4355.3)">
                    <path d="M226.655,525.086L227.033,527.061L229.048,527.061C229.048,527.061 229.16,526.781 229.329,526.781C229.473,526.781 229.659,527.061 229.854,527.061L234.978,527.061C234.978,527.061 235.069,526.646 234.958,526.501C234.901,526.428 234.563,526.301 234.338,526.237C233.298,525.945 230.321,525.032 229.803,524.039C229.172,522.828 226.655,525.086 226.655,525.086Z" style="fill:rgb(22,23,17);fill-rule:nonzero;"/>
                </g>
                <g transform="matrix(11.8991,0,0,11.8991,-565.084,-4355.3)">
                    <path d="M228.256,458.495L228.737,456.101C228.737,456.101 230.438,456.23 230.77,455.315C231.436,453.479 230.878,450.546 230.475,449.723C229.329,447.383 228.844,443.281 223.481,446.544C221.443,447.782 224.591,453.795 224.826,455.096C225.06,456.396 224.365,457.896 224.365,457.896L225.619,458.836L228.256,458.495Z" style="fill:rgb(247,182,139);fill-rule:nonzero;"/>
                </g>
                <g transform="matrix(11.8991,0,0,11.8991,-565.084,-4355.3)">
                    <path d="M218.722,481.151L219.769,488.676C219.769,488.676 215.701,485.562 215.425,481.995C215.149,478.427 218.543,480.873 218.722,481.151Z" style="fill:rgb(247,182,139);fill-rule:nonzero;"/>
                </g>
                <g transform="matrix(11.8991,0,0,11.8991,-565.084,-4355.3)">
                    <path d="M224.052,495.182C224.052,495.182 224.838,495.523 222.524,506.497C220.859,514.398 219.435,520.18 218.77,522.797C218.51,523.815 218.22,523.63 218.22,523.63L216.018,523.876L214.968,522.967L218.119,505.06L224.052,495.182Z" style="fill:rgb(9,29,52);fill-rule:nonzero;"/>
                </g>
                <g transform="matrix(11.8991,0,0,11.8991,-565.084,-4355.3)">
                    <path d="M236.336,476.234L231.825,484.886C231.825,484.886 240.434,478.658 239.893,475.232C239.353,471.806 236.336,476.234 236.336,476.234Z" style="fill:rgb(247,182,139);fill-rule:nonzero;"/>
                </g>
                <g transform="matrix(11.8991,0,0,11.8991,-565.084,-4355.3)">
                    <path d="M218.672,460.828C218.672,460.828 216.844,461.947 215.528,471.028C214.211,480.109 215.048,479.764 215.048,479.764L215.288,481.834L218.708,482.201L220.555,474.361L218.672,460.828Z" style="fill:rgb(92,162,171);fill-rule:nonzero;"/>
                </g>
                <g transform="matrix(11.8991,0,0,11.8991,-565.084,-4355.3)">
                    <path d="M227.973,484.469C227.973,484.469 223.437,505.479 219.703,514.938C217.515,520.48 217.239,509.954 217.239,509.954L220.109,479.531L230.625,478.767C230.625,478.767 229.441,479.166 227.973,484.469Z" style="fill:rgb(9,29,52);fill-rule:nonzero;"/>
                </g>
                <g transform="matrix(11.8991,0,0,11.8991,-565.084,-4355.3)">
                    <path d="M223.399,478.839C223.399,478.839 227.211,505.89 227.612,507.112C228.968,511.243 231.059,505.828 231.538,504.45C232.016,503.073 232.814,492.885 232.654,485.449L232.494,478.014L223.399,478.839Z" style="fill:rgb(9,29,52);fill-rule:nonzero;"/>
                </g>
                <g transform="matrix(11.8991,0,0,11.8991,-565.084,-4355.3)">
                    <path d="M227.228,500.346C227.228,500.346 226.651,503.572 226.173,507.694C225.822,510.721 225.812,519.367 226.369,525.371C226.403,525.738 230.222,524.62 230.222,524.62C230.222,524.62 231.616,507.813 231.936,504.049C232.254,500.286 229.623,497.657 227.228,500.346Z" style="fill:rgb(9,29,52);fill-rule:nonzero;"/>
                </g>
                <g transform="matrix(11.8991,0,0,11.8991,-565.084,-4355.3)">
                    <path d="M218.56,460.848L223.064,458.803L224.304,457.627L229.092,457.513L229.931,458.893L233.641,460.501C233.641,460.501 234.557,461.941 233.76,467.284C232.879,473.204 233.119,486.293 233.119,486.293C233.119,486.293 227.909,487.638 222.867,487.133C219.017,486.748 217.825,485.789 217.825,485.789C217.825,485.789 219.877,463.721 218.56,460.848Z" style="fill:rgb(92,162,171);fill-rule:nonzero;"/>
                </g>
                <g transform="matrix(11.8991,0,0,11.8991,-565.084,-4355.3)">
                    <path d="M232.446,460.514C232.446,460.514 233.282,459.582 235.316,462.112C238.785,466.421 240.464,471.767 240.822,472.802C241.181,473.837 241.642,475.302 240.223,477.021C239.139,478.336 238.788,478.78 238.788,478.78L235.675,476.84L236.165,475.908L236.512,475.446C236.512,475.446 234.837,471.767 233.042,468.434C231.247,465.101 232.446,460.514 232.446,460.514Z" style="fill:rgb(92,162,171);fill-rule:nonzero;"/>
                </g>
                <g transform="matrix(11.8991,0,0,11.8991,-565.084,-4355.3)">
                    <path d="M228.962,450.41C228.962,450.41 228.356,450.038 228.264,450.503C228.17,450.971 228.497,451.995 228.776,452.088C229.056,452.182 229.149,453.439 229.149,453.439L228.403,454.839L224.627,454.839C224.627,454.839 223.463,454.325 223.369,453.486C223.276,452.647 222.343,446.729 222.343,446.729L225.001,445.329C225.001,445.329 226.399,444.63 227.378,444.351C228.88,443.922 229.195,444.723 229.149,445.144C229.103,445.562 229.568,445.608 230.174,445.608C230.78,445.608 231.527,446.074 231.201,446.355C231.066,446.47 231.667,446.839 231.428,447.285C231.086,447.92 229.941,448.127 229.848,449.151C229.806,449.618 229.616,451.156 228.962,450.41Z" style="fill:rgb(9,29,52);fill-rule:nonzero;"/>
                </g>
                <g transform="matrix(11.8991,0,0,11.8991,-565.084,-4355.3)">
                    <path d="M233.108,482.649C233.108,482.649 231.938,483.246 231.644,483.562C230.799,484.472 232.506,483.843 232.75,484.017C233.268,484.387 233.009,486.552 233.009,486.552L233.985,485.187L233.108,482.649Z" style="fill:rgb(247,182,139);fill-rule:nonzero;"/>
                </g>
            </g>
            <g transform="matrix(0.538197,0,0,2.33626,-7365.58,-30352.6)">
                <ellipse cx="17992.1" cy="13803.7" rx="497.065" ry="15.638" style="fill:rgb(9,29,52);fill-opacity:0.1;"/>
            </g>
            <g transform="matrix(0.71845,0,0,0.672272,1315.65,-7025.65)">
                <path d="M2690.64,11419.5C2690.64,11392.9 2670.48,11371.4 2645.64,11371.4L2325.71,11371.4C2300.87,11371.4 2280.7,11392.9 2280.7,11419.5L2280.7,11760.5C2280.7,11787.1 2300.87,11808.6 2325.71,11808.6L2645.64,11808.6C2670.48,11808.6 2690.64,11787.1 2690.64,11760.5L2690.64,11419.5Z" style="fill:white;stroke:rgb(126,179,255);stroke-width:14.67px;stroke-linecap:round;stroke-linejoin:round;stroke-miterlimit:1.5;"/>
            </g>
            <g transform="matrix(0.388359,0,0,0.388359,3004.94,663.303)">
                <path d="M144,384C139.904,384 135.808,382.443 132.693,379.307C126.443,373.056 126.443,362.923 132.693,356.672L190.699,298.667L132.672,240.64C126.421,234.389 126.421,224.256 132.672,218.005C138.923,211.755 149.056,211.755 155.307,218.005L224.64,287.339C230.891,293.589 230.891,303.723 224.64,309.973L155.307,379.307C152.192,382.443 148.096,384 144,384Z" style="fill-rule:nonzero;"/>
            </g>
            <g transform="matrix(0.388359,0,0,0.388359,3004.94,663.303)">
                <path d="M368,384L272,384C263.168,384 256,376.832 256,368C256,359.168 263.168,352 272,352L368,352C376.832,352 384,359.168 384,368C384,376.832 376.832,384 368,384Z" style="fill-rule:nonzero;"/>
            </g>
            <g transform="matrix(0.388359,0,0,0.388359,3004.94,663.303)">
                <path d="M453.333,490.667L58.667,490.667C26.304,490.667 0,464.363 0,432L0,80C0,47.637 26.304,21.333 58.667,21.333L453.333,21.333C485.696,21.333 512,47.637 512,80L512,432C512,464.363 485.696,490.667 453.333,490.667ZM58.667,53.333C43.968,53.333 32,65.301 32,80L32,432C32,446.699 43.968,458.667 58.667,458.667L453.333,458.667C468.032,458.667 480,446.699 480,432L480,80C480,65.301 468.032,53.333 453.333,53.333L58.667,53.333Z" style="fill-rule:nonzero;"/>
            </g>
            <g transform="matrix(0.388359,0,0,0.388359,3004.94,663.303)">
                <path d="M496,128L16,128C7.168,128 0,120.832 0,112C0,103.168 7.168,96 16,96L496,96C504.832,96 512,103.168 512,112C512,120.832 504.832,128 496,128Z" style="fill-rule:nonzero;"/>
            </g>
        </g>
    </g>
</svg>
